<mxfile host="app.diagrams.net" modified="2023-12-05T15:25:32.743Z" agent="Mozilla/5.0 (Windows NT 10.0; Win64; x64) AppleWebKit/537.36 (KHTML, like Gecko) Chrome/119.0.0.0 Safari/537.36" version="22.1.5" etag="VWwGMJ73TFIZ-ex6iFe8" type="github">
  <diagram name="PÃ¡gina-1" id="9exKUAd3f984O2MWw_So">
    <mxGraphModel>
      <root>
        <mxCell id="0" />
        <mxCell id="1" parent="0" />
      </root>
    </mxGraphModel>
  </diagram>
</mxfile>
